<?xml version="1.0" encoding="UTF-8" standalone="no"?>
<svg
   xmlns:dc="http://purl.org/dc/elements/1.1/"
   xmlns:cc="http://creativecommons.org/ns#"
   xmlns:rdf="http://www.w3.org/1999/02/22-rdf-syntax-ns#"
   xmlns:svg="http://www.w3.org/2000/svg"
   xmlns="http://www.w3.org/2000/svg"
   xmlns:sodipodi="http://sodipodi.sourceforge.net/DTD/sodipodi-0.dtd"
   xmlns:inkscape="http://www.inkscape.org/namespaces/inkscape"
   version="1.1"
   id="Layer_1"
   x="0px"
   y="0px"
   viewBox="0 0 491.52 491.52"
   style="enable-background:new 0 0 491.52 491.52;"
   xml:space="preserve"
   sodipodi:docname="floppy-disk-save-svgrepo-comMod.svg"
   inkscape:version="1.0.1 (0767f8302a, 2020-10-17)"><metadata
   id="metadata190"><rdf:RDF><cc:Work
       rdf:about=""><dc:format>image/svg+xml</dc:format><dc:type
         rdf:resource="http://purl.org/dc/dcmitype/StillImage" /><dc:title></dc:title></cc:Work></rdf:RDF></metadata><defs
   id="defs188" /><sodipodi:namedview
   pagecolor="#ffffff"
   bordercolor="#666666"
   borderopacity="1"
   objecttolerance="10"
   gridtolerance="10"
   guidetolerance="10"
   inkscape:pageopacity="0"
   inkscape:pageshadow="2"
   inkscape:window-width="2308"
   inkscape:window-height="1352"
   id="namedview186"
   showgrid="false"
   inkscape:zoom="0.72506066"
   inkscape:cx="-50.499591"
   inkscape:cy="-108.47742"
   inkscape:window-x="0"
   inkscape:window-y="27"
   inkscape:window-maximized="0"
   inkscape:current-layer="Layer_1" />
<path
   style="fill:#2F4859;"
   d="M470.923,473.646H20.596C9.221,473.646,0,464.425,0,453.05v17.874  c0,11.374,9.221,20.596,20.596,20.596h450.327c11.375,0,20.597-9.222,20.597-20.596V453.05  C491.52,464.425,482.298,473.646,470.923,473.646z"
   id="path135" />
<path
   style="fill:#64798A;"
   d="M485.486,74.398L417.121,6.033C413.259,2.17,408.021,0,402.557,0H20.596C9.221,0,0,9.221,0,20.595  v17.874V453.05c0,11.375,9.221,20.596,20.596,20.596h450.327c11.375,0,20.597-9.221,20.597-20.596V106.835V88.961  C491.52,83.499,489.349,78.261,485.486,74.398z"
   id="path137" />
<rect
   x="47.641998"
   y="220.43411"
   style="fill:#ffffff;stroke-width:1.21846"
   width="400"
   height="253.21187"
   id="rect139" />

<path
   style="fill:#3A556A;"
   d="M105.166,17.874v146.971c0,8.84,7.165,16.007,16.006,16.007h249.174  c8.841,0,16.006-7.166,16.006-16.007V17.874H105.166z M346.021,152.274h-40.056V46.449h40.056V152.274z"
   id="path151" />
<path
   style="fill:#E1E6E9;"
   d="M105.166,0v146.971c0,8.84,7.165,16.007,16.006,16.007h249.174c8.841,0,16.006-7.166,16.006-16.007V0  H105.166z M346.021,134.401h-40.056V28.576h40.056V134.401z"
   id="path153" />
<g
   id="g155">
</g>
<g
   id="g157">
</g>
<g
   id="g159">
</g>
<g
   id="g161">
</g>
<g
   id="g163">
</g>
<g
   id="g165">
</g>
<g
   id="g167">
</g>
<g
   id="g169">
</g>
<g
   id="g171">
</g>
<g
   id="g173">
</g>
<g
   id="g175">
</g>
<g
   id="g177">
</g>
<g
   id="g179">
</g>
<g
   id="g181">
</g>
<g
   id="g183">
</g>
</svg>
